<svg xmlns="http://www.w3.org/2000/svg" xmlns:xlink="http://www.w3.org/1999/xlink" width="250" zoomAndPan="magnify" viewBox="0 0 187.5 187.499992" height="250" preserveAspectRatio="xMidYMid meet" version="1.0"><defs><g/><clipPath id="3ded67429b"><path d="M 0 0 L 187 0 L 187 187 L 0 187 Z M 0 0 " clip-rule="nonzero"/></clipPath><clipPath id="8431a4df6b"><path d="M 37.5 47 L 57 47 L 57 105.640625 L 37.5 105.640625 Z M 37.5 47 " clip-rule="nonzero"/></clipPath><clipPath id="7bb569ef7f"><path d="M 131.402344 47.664062 L 149.996094 47.664062 L 149.996094 105.640625 L 131.402344 105.640625 Z M 131.402344 47.664062 " clip-rule="nonzero"/></clipPath><clipPath id="6e28525e9c"><path d="M 85 34.394531 L 103 34.394531 L 103 54 L 85 54 Z M 85 34.394531 " clip-rule="nonzero"/></clipPath></defs><g clip-path="url(#3ded67429b)"><path fill="#ffffff" d="M 0 0 L 187.5 0 L 187.5 187.5 L 0 187.5 Z M 0 0 " fill-opacity="1" fill-rule="nonzero"/><path fill="#12229d" d="M 0 0 L 187.5 0 L 187.5 187.5 L 0 187.5 Z M 0 0 " fill-opacity="1" fill-rule="nonzero"/></g><path fill="#5cb6f9" d="M 75.855469 66.882812 C 74.476562 66.882812 73.191406 67.140625 72 67.664062 C 70.804688 68.183594 69.769531 68.886719 68.894531 69.769531 C 68.019531 70.652344 67.324219 71.6875 66.8125 72.875 C 66.300781 74.066406 66.042969 75.332031 66.042969 76.667969 C 66.042969 78.007812 66.300781 79.273438 66.8125 80.460938 C 67.324219 81.652344 68.019531 82.6875 68.894531 83.570312 C 69.769531 84.453125 70.804688 85.15625 72 85.675781 C 73.191406 86.195312 74.476562 86.457031 75.855469 86.457031 C 77.21875 86.457031 78.492188 86.195312 79.6875 85.675781 C 80.878906 85.15625 81.917969 84.449219 82.804688 83.554688 C 83.6875 82.664062 84.386719 81.628906 84.902344 80.445312 C 85.414062 79.265625 85.667969 78.007812 85.667969 76.667969 C 85.667969 75.332031 85.414062 74.070312 84.902344 72.890625 C 84.386719 71.710938 83.6875 70.675781 82.804688 69.78125 C 81.917969 68.890625 80.878906 68.183594 79.6875 67.664062 C 78.492188 67.140625 77.21875 66.882812 75.855469 66.882812 Z M 91.511719 76.667969 C 91.511719 81.019531 89.984375 84.699219 86.929688 87.710938 C 83.832031 90.757812 80.144531 92.285156 75.855469 92.285156 C 71.53125 92.285156 67.84375 90.757812 64.785156 87.710938 C 61.730469 84.664062 60.199219 80.980469 60.199219 76.667969 C 60.199219 72.355469 61.730469 68.675781 64.785156 65.628906 C 67.84375 62.578125 71.53125 61.054688 75.855469 61.054688 C 80.144531 61.054688 83.832031 62.578125 86.929688 65.628906 C 88.457031 67.152344 89.597656 68.832031 90.351562 70.675781 C 91.105469 72.515625 91.492188 74.511719 91.511719 76.667969 " fill-opacity="1" fill-rule="nonzero"/><path fill="#5cb6f9" d="M 111.640625 66.882812 C 110.261719 66.882812 108.976562 67.140625 107.785156 67.664062 C 106.589844 68.183594 105.554688 68.886719 104.679688 69.769531 C 103.804688 70.652344 103.109375 71.6875 102.597656 72.875 C 102.085938 74.066406 101.828125 75.332031 101.828125 76.667969 C 101.828125 78.007812 102.085938 79.273438 102.597656 80.460938 C 103.109375 81.652344 103.804688 82.6875 104.679688 83.570312 C 105.554688 84.453125 106.589844 85.15625 107.785156 85.675781 C 108.976562 86.195312 110.261719 86.457031 111.640625 86.457031 C 113 86.457031 114.277344 86.195312 115.472656 85.675781 C 116.664062 85.15625 117.703125 84.449219 118.589844 83.554688 C 119.472656 82.664062 120.171875 81.628906 120.683594 80.445312 C 121.195312 79.265625 121.453125 78.007812 121.453125 76.667969 C 121.453125 75.332031 121.195312 74.070312 120.683594 72.890625 C 120.171875 71.710938 119.472656 70.675781 118.589844 69.78125 C 117.703125 68.890625 116.664062 68.183594 115.472656 67.664062 C 114.277344 67.140625 113 66.882812 111.640625 66.882812 Z M 127.296875 76.667969 C 127.296875 81.019531 125.769531 84.699219 122.710938 87.710938 C 119.617188 90.757812 115.929688 92.285156 111.640625 92.285156 C 107.316406 92.285156 103.625 90.757812 100.570312 87.710938 C 97.515625 84.664062 95.984375 80.980469 95.984375 76.667969 C 95.984375 72.355469 97.515625 68.675781 100.570312 65.628906 C 103.625 62.578125 107.316406 61.054688 111.640625 61.054688 C 115.929688 61.054688 119.617188 62.578125 122.710938 65.628906 C 124.238281 67.152344 125.382812 68.832031 126.136719 70.675781 C 126.890625 72.515625 127.277344 74.511719 127.296875 76.667969 " fill-opacity="1" fill-rule="nonzero"/><g clip-path="url(#8431a4df6b)"><path fill="#f4f6fc" d="M 53.15625 47.699219 C 53.996094 47.699219 54.6875 47.980469 55.238281 48.546875 C 55.789062 49.117188 56.0625 49.808594 56.0625 50.625 C 56.0625 51.460938 55.789062 52.15625 55.238281 52.703125 C 54.6875 53.25 53.996094 53.527344 53.15625 53.527344 C 50.84375 53.527344 49.6875 54.679688 49.6875 56.984375 L 49.6875 70.3125 C 49.6875 72.988281 49.074219 75.109375 47.84375 76.667969 C 49.074219 78.230469 49.6875 80.351562 49.6875 83.027344 L 49.6875 96.355469 C 49.6875 98.660156 50.84375 99.8125 53.15625 99.8125 C 53.996094 99.8125 54.6875 100.085938 55.238281 100.636719 C 55.789062 101.183594 56.0625 101.875 56.0625 102.710938 C 56.0625 103.546875 55.789062 104.246094 55.238281 104.804688 C 54.6875 105.359375 53.996094 105.640625 53.15625 105.640625 C 46.949219 105.640625 43.847656 102.542969 43.847656 96.355469 L 43.847656 83.027344 C 43.847656 80.722656 42.699219 79.570312 40.40625 79.570312 C 39.570312 79.570312 38.875 79.292969 38.324219 78.746094 C 37.773438 78.199219 37.5 77.503906 37.5 76.667969 C 37.5 75.832031 37.773438 75.140625 38.324219 74.589844 C 38.875 74.042969 39.570312 73.769531 40.40625 73.769531 C 42.699219 73.769531 43.847656 72.617188 43.847656 70.3125 L 43.847656 56.984375 C 43.847656 50.792969 46.949219 47.699219 53.15625 47.699219 " fill-opacity="1" fill-rule="nonzero"/></g><g clip-path="url(#7bb569ef7f)"><path fill="#f4f6fc" d="M 143.652344 56.984375 L 143.652344 70.3125 C 143.652344 72.617188 144.796875 73.769531 147.089844 73.769531 C 147.929688 73.769531 148.625 74.042969 149.171875 74.589844 C 149.722656 75.140625 149.996094 75.832031 149.996094 76.667969 C 149.996094 77.503906 149.722656 78.199219 149.171875 78.746094 C 148.625 79.292969 147.929688 79.570312 147.089844 79.570312 C 144.796875 79.570312 143.652344 80.722656 143.652344 83.027344 L 143.652344 96.355469 C 143.652344 102.542969 140.550781 105.640625 134.339844 105.640625 C 133.503906 105.640625 132.808594 105.359375 132.257812 104.804688 C 131.710938 104.246094 131.433594 103.546875 131.433594 102.710938 C 131.433594 101.875 131.710938 101.183594 132.257812 100.636719 C 132.808594 100.085938 133.503906 99.8125 134.339844 99.8125 C 136.652344 99.8125 137.808594 98.660156 137.808594 96.355469 L 137.808594 83.027344 C 137.808594 80.351562 138.425781 78.230469 139.652344 76.667969 C 138.425781 75.109375 137.808594 72.988281 137.808594 70.3125 L 137.808594 56.984375 C 137.808594 54.679688 136.652344 53.527344 134.339844 53.527344 C 133.503906 53.527344 132.808594 53.25 132.257812 52.703125 C 131.710938 52.15625 131.433594 51.460938 131.433594 50.625 C 131.433594 49.808594 131.710938 49.117188 132.257812 48.546875 C 132.808594 47.980469 133.503906 47.699219 134.339844 47.699219 C 140.550781 47.699219 143.652344 50.792969 143.652344 56.984375 " fill-opacity="1" fill-rule="nonzero"/></g><g clip-path="url(#6e28525e9c)"><path fill="#f4f6fc" d="M 102.5 50.011719 C 102.5 50.492188 102.40625 50.945312 102.21875 51.363281 C 102.03125 51.78125 101.785156 52.148438 101.480469 52.464844 C 101.171875 52.78125 100.800781 53.027344 100.375 53.203125 C 99.945312 53.378906 99.5 53.46875 99.03125 53.46875 C 98.175781 53.46875 97.4375 53.171875 96.824219 52.574219 C 96.207031 51.980469 95.707031 51.25 95.3125 50.386719 C 94.921875 49.523438 94.636719 48.628906 94.460938 47.710938 C 94.285156 46.789062 94.195312 45.929688 94.195312 45.128906 C 94.195312 41.839844 95.601562 38.511719 98.417969 35.148438 C 98.921875 34.644531 99.488281 34.394531 100.125 34.394531 C 100.773438 34.394531 101.335938 34.628906 101.800781 35.09375 C 102.265625 35.558594 102.5 36.113281 102.5 36.765625 C 102.5 37.082031 102.433594 37.40625 102.304688 37.742188 C 101.464844 39.785156 101.046875 41.726562 101.046875 43.570312 C 101.046875 45.316406 101.425781 47.007812 102.191406 48.644531 C 102.398438 49.109375 102.5 49.5625 102.5 50.011719 Z M 93.300781 50.011719 C 93.300781 50.492188 93.207031 50.945312 93.023438 51.363281 C 92.835938 51.78125 92.589844 52.148438 92.28125 52.464844 C 91.972656 52.78125 91.605469 53.027344 91.175781 53.203125 C 90.75 53.378906 90.300781 53.46875 89.835938 53.46875 C 88.976562 53.46875 88.242188 53.171875 87.625 52.574219 C 87.011719 51.980469 86.507812 51.25 86.117188 50.386719 C 85.726562 49.523438 85.441406 48.628906 85.265625 47.710938 C 85.085938 46.789062 85 45.929688 85 45.128906 C 85 41.839844 86.40625 38.511719 89.21875 35.148438 C 89.722656 34.644531 90.292969 34.394531 90.925781 34.394531 C 91.578125 34.394531 92.136719 34.628906 92.601562 35.09375 C 93.070312 35.558594 93.300781 36.113281 93.300781 36.765625 C 93.300781 37.082031 93.234375 37.40625 93.105469 37.742188 C 92.265625 39.785156 91.847656 41.726562 91.847656 43.570312 C 91.847656 45.316406 92.230469 47.007812 92.996094 48.644531 C 93.199219 49.109375 93.300781 49.5625 93.300781 50.011719 " fill-opacity="1" fill-rule="nonzero"/></g><g fill="#f4f6fc" fill-opacity="1"><g transform="translate(33.364744, 143.190791)"><g><path d="M 2.53125 -14.359375 L 6.140625 -14.34375 C 8.035156 -14.34375 9.695312 -13.660156 11.125 -12.296875 C 12.5625 -10.929688 13.28125 -9.253906 13.28125 -7.265625 C 13.28125 -5.273438 12.578125 -3.566406 11.171875 -2.140625 C 9.773438 -0.722656 8.078125 -0.015625 6.078125 -0.015625 L 2.5 -0.015625 C 1.707031 -0.015625 1.210938 -0.179688 1.015625 -0.515625 C 0.859375 -0.785156 0.78125 -1.203125 0.78125 -1.765625 L 0.78125 -12.640625 C 0.78125 -12.953125 0.789062 -13.175781 0.8125 -13.3125 C 0.832031 -13.457031 0.894531 -13.628906 1 -13.828125 C 1.175781 -14.179688 1.6875 -14.359375 2.53125 -14.359375 Z M 6.140625 -3.484375 C 7.078125 -3.484375 7.925781 -3.832031 8.6875 -4.53125 C 9.445312 -5.226562 9.828125 -6.101562 9.828125 -7.15625 C 9.828125 -8.21875 9.457031 -9.101562 8.71875 -9.8125 C 7.976562 -10.519531 7.113281 -10.875 6.125 -10.875 L 4.25 -10.875 L 4.25 -3.484375 Z M 6.140625 -3.484375 "/></g></g></g><g fill="#f4f6fc" fill-opacity="1"><g transform="translate(47.134044, 143.190791)"><g><path d="M 17.9375 -14.265625 C 18.8125 -13.953125 19.25 -13.535156 19.25 -13.015625 C 19.25 -12.835938 19.171875 -12.515625 19.015625 -12.046875 L 15.265625 -1.1875 C 15.234375 -1.101562 15.1875 -0.992188 15.125 -0.859375 C 15.0625 -0.734375 14.890625 -0.5625 14.609375 -0.34375 C 14.328125 -0.125 13.992188 -0.015625 13.609375 -0.015625 C 13.222656 -0.015625 12.890625 -0.125 12.609375 -0.34375 C 12.328125 -0.5625 12.140625 -0.773438 12.046875 -0.984375 L 9.765625 -7.734375 C 8.316406 -3.453125 7.578125 -1.269531 7.546875 -1.1875 C 7.523438 -1.113281 7.46875 -1.003906 7.375 -0.859375 C 7.28125 -0.710938 7.175781 -0.582031 7.0625 -0.46875 C 6.757812 -0.164062 6.398438 -0.015625 5.984375 -0.015625 C 5.566406 -0.015625 5.222656 -0.113281 4.953125 -0.3125 C 4.691406 -0.507812 4.515625 -0.707031 4.421875 -0.90625 L 4.28125 -1.1875 L 0.515625 -12.046875 C 0.367188 -12.484375 0.296875 -12.804688 0.296875 -13.015625 C 0.296875 -13.535156 0.734375 -13.941406 1.609375 -14.234375 C 1.984375 -14.367188 2.320312 -14.4375 2.625 -14.4375 C 2.9375 -14.4375 3.171875 -14.332031 3.328125 -14.125 C 3.492188 -13.914062 3.644531 -13.597656 3.78125 -13.171875 L 5.921875 -6.625 L 8.0625 -13.0625 C 8.238281 -13.613281 8.570312 -13.992188 9.0625 -14.203125 C 9.269531 -14.296875 9.539062 -14.34375 9.875 -14.34375 C 10.207031 -14.34375 10.515625 -14.234375 10.796875 -14.015625 C 11.085938 -13.796875 11.269531 -13.582031 11.34375 -13.375 L 13.59375 -6.59375 L 15.75 -13.171875 C 15.851562 -13.460938 15.9375 -13.679688 16 -13.828125 C 16.0625 -13.972656 16.179688 -14.113281 16.359375 -14.25 C 16.535156 -14.382812 16.753906 -14.453125 17.015625 -14.453125 C 17.273438 -14.453125 17.582031 -14.390625 17.9375 -14.265625 Z M 17.9375 -14.265625 "/></g></g></g><g fill="#f4f6fc" fill-opacity="1"><g transform="translate(66.673146, 143.190791)"><g><path d="M 4.25 -3.46875 L 10.265625 -3.46875 C 10.566406 -3.46875 10.789062 -3.457031 10.9375 -3.4375 C 11.09375 -3.414062 11.269531 -3.351562 11.46875 -3.25 C 11.8125 -3.0625 11.984375 -2.550781 11.984375 -1.71875 C 11.984375 -0.8125 11.742188 -0.28125 11.265625 -0.125 C 11.046875 -0.0390625 10.707031 0 10.25 0 L 2.5 0 C 1.59375 0 1.0625 -0.25 0.90625 -0.75 C 0.820312 -0.957031 0.78125 -1.285156 0.78125 -1.734375 L 0.78125 -12.625 C 0.78125 -13.28125 0.90625 -13.726562 1.15625 -13.96875 C 1.40625 -14.21875 1.875 -14.34375 2.5625 -14.34375 L 10.265625 -14.34375 C 10.566406 -14.34375 10.789062 -14.332031 10.9375 -14.3125 C 11.09375 -14.289062 11.269531 -14.226562 11.46875 -14.125 C 11.8125 -13.9375 11.984375 -13.425781 11.984375 -12.59375 C 11.984375 -11.6875 11.742188 -11.15625 11.265625 -11 C 11.046875 -10.914062 10.707031 -10.875 10.25 -10.875 L 4.25 -10.875 L 4.25 -8.90625 L 8.125 -8.90625 C 8.414062 -8.90625 8.632812 -8.894531 8.78125 -8.875 C 8.9375 -8.851562 9.113281 -8.789062 9.3125 -8.6875 C 9.664062 -8.5 9.84375 -7.988281 9.84375 -7.15625 C 9.84375 -6.25 9.59375 -5.71875 9.09375 -5.5625 C 8.875 -5.476562 8.535156 -5.4375 8.078125 -5.4375 L 4.25 -5.4375 Z M 4.25 -3.46875 "/></g></g></g><g fill="#f4f6fc" fill-opacity="1"><g transform="translate(79.151576, 143.190791)"><g><path d="M 11 -7.6875 C 11.757812 -6.769531 12.140625 -5.742188 12.140625 -4.609375 C 12.117188 -3.304688 11.671875 -2.210938 10.796875 -1.328125 C 9.929688 -0.453125 8.882812 -0.015625 7.65625 -0.015625 L 2.5 -0.015625 C 1.59375 -0.015625 1.0625 -0.265625 0.90625 -0.765625 C 0.820312 -0.984375 0.78125 -1.320312 0.78125 -1.78125 L 0.78125 -12.640625 C 0.78125 -12.953125 0.789062 -13.175781 0.8125 -13.3125 C 0.832031 -13.457031 0.894531 -13.628906 1 -13.828125 C 1.175781 -14.179688 1.6875 -14.359375 2.53125 -14.359375 L 7.453125 -14.359375 C 8.648438 -14.359375 9.65625 -13.941406 10.46875 -13.109375 C 11.3125 -12.253906 11.734375 -11.238281 11.734375 -10.0625 C 11.734375 -9.195312 11.488281 -8.40625 11 -7.6875 Z M 8.6875 -4.8125 C 8.6875 -5.125 8.648438 -5.367188 8.578125 -5.546875 C 8.503906 -5.734375 8.382812 -5.867188 8.21875 -5.953125 C 7.957031 -6.054688 7.59375 -6.109375 7.125 -6.109375 C 6.65625 -6.109375 6.300781 -6.195312 6.0625 -6.375 C 5.832031 -6.5625 5.71875 -6.9375 5.71875 -7.5 C 5.71875 -8.070312 5.835938 -8.445312 6.078125 -8.625 C 6.316406 -8.8125 6.71875 -8.90625 7.28125 -8.90625 C 7.800781 -8.90625 8.113281 -9.039062 8.21875 -9.3125 C 8.257812 -9.457031 8.28125 -9.691406 8.28125 -10.015625 C 8.28125 -10.335938 8.171875 -10.5625 7.953125 -10.6875 C 7.734375 -10.820312 7.410156 -10.890625 6.984375 -10.890625 L 4.25 -10.890625 L 4.25 -3.484375 L 7.453125 -3.484375 C 8.273438 -3.484375 8.6875 -3.925781 8.6875 -4.8125 Z M 8.6875 -4.8125 "/></g></g></g><g fill="#f4f6fc" fill-opacity="1"><g transform="translate(91.78647, 143.190791)"><g><path d="M 6.546875 -2.71875 L 1.890625 -2.71875 C 1.160156 -2.71875 0.726562 -2.941406 0.59375 -3.390625 C 0.519531 -3.617188 0.484375 -3.914062 0.484375 -4.28125 C 0.484375 -4.644531 0.519531 -4.9375 0.59375 -5.15625 C 0.675781 -5.382812 0.804688 -5.546875 0.984375 -5.640625 C 1.210938 -5.753906 1.523438 -5.8125 1.921875 -5.8125 L 6.578125 -5.8125 C 7.304688 -5.8125 7.734375 -5.597656 7.859375 -5.171875 C 7.941406 -4.929688 7.984375 -4.628906 7.984375 -4.265625 C 7.984375 -3.898438 7.945312 -3.601562 7.875 -3.375 C 7.800781 -3.144531 7.6875 -2.984375 7.53125 -2.890625 C 7.289062 -2.773438 6.960938 -2.71875 6.546875 -2.71875 Z M 6.546875 -2.71875 "/></g></g></g><g fill="#f4f6fc" fill-opacity="1"><g transform="translate(100.255371, 143.190791)"><g><path d="M 9.734375 -3.75 L 10.09375 -4.015625 C 10.539062 -4.273438 10.851562 -4.40625 11.03125 -4.40625 C 11.4375 -4.40625 11.875 -4.039062 12.34375 -3.3125 C 12.632812 -2.851562 12.78125 -2.484375 12.78125 -2.203125 C 12.78125 -1.929688 12.691406 -1.703125 12.515625 -1.515625 C 12.335938 -1.335938 12.128906 -1.175781 11.890625 -1.03125 C 11.660156 -0.894531 11.4375 -0.757812 11.21875 -0.625 C 11 -0.5 10.554688 -0.328125 9.890625 -0.109375 C 9.234375 0.0976562 8.59375 0.203125 7.96875 0.203125 C 7.351562 0.203125 6.726562 0.117188 6.09375 -0.046875 C 5.457031 -0.210938 4.800781 -0.488281 4.125 -0.875 C 3.457031 -1.257812 2.859375 -1.726562 2.328125 -2.28125 C 1.796875 -2.832031 1.351562 -3.539062 1 -4.40625 C 0.65625 -5.28125 0.484375 -6.222656 0.484375 -7.234375 C 0.484375 -8.253906 0.648438 -9.175781 0.984375 -10 C 1.328125 -10.832031 1.765625 -11.519531 2.296875 -12.0625 C 2.828125 -12.601562 3.429688 -13.054688 4.109375 -13.421875 C 5.390625 -14.117188 6.675781 -14.46875 7.96875 -14.46875 C 8.570312 -14.46875 9.191406 -14.375 9.828125 -14.1875 C 10.460938 -14 10.941406 -13.804688 11.265625 -13.609375 L 11.734375 -13.34375 C 11.972656 -13.195312 12.15625 -13.078125 12.28125 -12.984375 C 12.625 -12.710938 12.796875 -12.40625 12.796875 -12.0625 C 12.796875 -11.71875 12.660156 -11.351562 12.390625 -10.96875 C 11.878906 -10.269531 11.421875 -9.921875 11.015625 -9.921875 C 10.773438 -9.921875 10.441406 -10.0625 10.015625 -10.34375 C 9.460938 -10.789062 8.734375 -11.015625 7.828125 -11.015625 C 6.972656 -11.015625 6.140625 -10.722656 5.328125 -10.140625 C 4.929688 -9.847656 4.601562 -9.441406 4.34375 -8.921875 C 4.082031 -8.398438 3.953125 -7.804688 3.953125 -7.140625 C 3.953125 -6.484375 4.082031 -5.894531 4.34375 -5.375 C 4.601562 -4.851562 4.9375 -4.441406 5.34375 -4.140625 C 6.132812 -3.566406 6.960938 -3.28125 7.828125 -3.28125 C 8.234375 -3.28125 8.613281 -3.332031 8.96875 -3.4375 C 9.320312 -3.539062 9.578125 -3.644531 9.734375 -3.75 Z M 9.734375 -3.75 "/></g></g></g><g fill="#f4f6fc" fill-opacity="1"><g transform="translate(113.535701, 143.190791)"><g><path d="M 9.0625 -13.328125 L 14.34375 -2.40625 C 14.5625 -1.957031 14.671875 -1.625 14.671875 -1.40625 C 14.671875 -0.9375 14.289062 -0.515625 13.53125 -0.140625 C 13.09375 0.0859375 12.742188 0.203125 12.484375 0.203125 C 12.234375 0.203125 12.023438 0.140625 11.859375 0.015625 C 11.703125 -0.0976562 11.585938 -0.21875 11.515625 -0.34375 C 11.441406 -0.476562 11.335938 -0.675781 11.203125 -0.9375 L 10.1875 -3.046875 L 4.765625 -3.046875 L 3.75 -0.9375 C 3.625 -0.675781 3.523438 -0.488281 3.453125 -0.375 C 3.378906 -0.257812 3.257812 -0.140625 3.09375 -0.015625 C 2.9375 0.109375 2.726562 0.171875 2.46875 0.171875 C 2.21875 0.171875 1.867188 0.0625 1.421875 -0.15625 C 0.671875 -0.519531 0.296875 -0.9375 0.296875 -1.40625 C 0.296875 -1.625 0.40625 -1.957031 0.625 -2.40625 L 5.90625 -13.34375 C 6.050781 -13.644531 6.269531 -13.882812 6.5625 -14.0625 C 6.851562 -14.25 7.164062 -14.34375 7.5 -14.34375 C 8.195312 -14.34375 8.71875 -14.003906 9.0625 -13.328125 Z M 7.46875 -8.625 L 6.1875 -5.953125 L 8.78125 -5.953125 Z M 7.46875 -8.625 "/></g></g></g><g fill="#f4f6fc" fill-opacity="1"><g transform="translate(128.498082, 143.190791)"><g><path d="M 11.75 -2.421875 C 11.945312 -1.953125 12.046875 -1.613281 12.046875 -1.40625 C 12.046875 -0.914062 11.644531 -0.5 10.84375 -0.15625 C 10.425781 0.03125 10.085938 0.125 9.828125 0.125 C 9.578125 0.125 9.367188 0.0625 9.203125 -0.0625 C 9.035156 -0.1875 8.914062 -0.316406 8.84375 -0.453125 C 8.707031 -0.703125 8.195312 -1.878906 7.3125 -3.984375 L 6.703125 -3.953125 L 4.25 -3.953125 L 4.25 -1.734375 C 4.25 -1.441406 4.238281 -1.21875 4.21875 -1.0625 C 4.195312 -0.914062 4.132812 -0.742188 4.03125 -0.546875 C 3.84375 -0.191406 3.332031 -0.015625 2.5 -0.015625 C 1.59375 -0.015625 1.0625 -0.257812 0.90625 -0.75 C 0.820312 -0.96875 0.78125 -1.304688 0.78125 -1.765625 L 0.78125 -12.625 C 0.78125 -12.914062 0.789062 -13.132812 0.8125 -13.28125 C 0.832031 -13.4375 0.894531 -13.613281 1 -13.8125 C 1.175781 -14.164062 1.6875 -14.34375 2.53125 -14.34375 L 6.75 -14.34375 C 7.894531 -14.34375 9.007812 -13.925781 10.09375 -13.09375 C 10.613281 -12.6875 11.039062 -12.132812 11.375 -11.4375 C 11.71875 -10.75 11.890625 -9.984375 11.890625 -9.140625 C 11.890625 -7.660156 11.398438 -6.445312 10.421875 -5.5 C 10.710938 -4.800781 11.15625 -3.773438 11.75 -2.421875 Z M 4.25 -7.421875 L 6.75 -7.421875 C 7.125 -7.421875 7.5 -7.5625 7.875 -7.84375 C 8.257812 -8.132812 8.453125 -8.566406 8.453125 -9.140625 C 8.453125 -9.710938 8.257812 -10.144531 7.875 -10.4375 C 7.5 -10.726562 7.109375 -10.875 6.703125 -10.875 L 4.25 -10.875 Z M 4.25 -7.421875 "/></g></g></g><g fill="#f4f6fc" fill-opacity="1"><g transform="translate(140.839595, 143.190791)"><g><path d="M 9.734375 -3.75 L 10.09375 -4.015625 C 10.539062 -4.273438 10.851562 -4.40625 11.03125 -4.40625 C 11.4375 -4.40625 11.875 -4.039062 12.34375 -3.3125 C 12.632812 -2.851562 12.78125 -2.484375 12.78125 -2.203125 C 12.78125 -1.929688 12.691406 -1.703125 12.515625 -1.515625 C 12.335938 -1.335938 12.128906 -1.175781 11.890625 -1.03125 C 11.660156 -0.894531 11.4375 -0.757812 11.21875 -0.625 C 11 -0.5 10.554688 -0.328125 9.890625 -0.109375 C 9.234375 0.0976562 8.59375 0.203125 7.96875 0.203125 C 7.351562 0.203125 6.726562 0.117188 6.09375 -0.046875 C 5.457031 -0.210938 4.800781 -0.488281 4.125 -0.875 C 3.457031 -1.257812 2.859375 -1.726562 2.328125 -2.28125 C 1.796875 -2.832031 1.351562 -3.539062 1 -4.40625 C 0.65625 -5.28125 0.484375 -6.222656 0.484375 -7.234375 C 0.484375 -8.253906 0.648438 -9.175781 0.984375 -10 C 1.328125 -10.832031 1.765625 -11.519531 2.296875 -12.0625 C 2.828125 -12.601562 3.429688 -13.054688 4.109375 -13.421875 C 5.390625 -14.117188 6.675781 -14.46875 7.96875 -14.46875 C 8.570312 -14.46875 9.191406 -14.375 9.828125 -14.1875 C 10.460938 -14 10.941406 -13.804688 11.265625 -13.609375 L 11.734375 -13.34375 C 11.972656 -13.195312 12.15625 -13.078125 12.28125 -12.984375 C 12.625 -12.710938 12.796875 -12.40625 12.796875 -12.0625 C 12.796875 -11.71875 12.660156 -11.351562 12.390625 -10.96875 C 11.878906 -10.269531 11.421875 -9.921875 11.015625 -9.921875 C 10.773438 -9.921875 10.441406 -10.0625 10.015625 -10.34375 C 9.460938 -10.789062 8.734375 -11.015625 7.828125 -11.015625 C 6.972656 -11.015625 6.140625 -10.722656 5.328125 -10.140625 C 4.929688 -9.847656 4.601562 -9.441406 4.34375 -8.921875 C 4.082031 -8.398438 3.953125 -7.804688 3.953125 -7.140625 C 3.953125 -6.484375 4.082031 -5.894531 4.34375 -5.375 C 4.601562 -4.851562 4.9375 -4.441406 5.34375 -4.140625 C 6.132812 -3.566406 6.960938 -3.28125 7.828125 -3.28125 C 8.234375 -3.28125 8.613281 -3.332031 8.96875 -3.4375 C 9.320312 -3.539062 9.578125 -3.644531 9.734375 -3.75 Z M 9.734375 -3.75 "/></g></g></g></svg>